<?xml version="1.0" encoding="UTF-8" standalone="no"?>
<svg
   xmlns:dc="http://purl.org/dc/elements/1.1/"
   xmlns:cc="http://creativecommons.org/ns#"
   xmlns:rdf="http://www.w3.org/1999/02/22-rdf-syntax-ns#"
   xmlns:svg="http://www.w3.org/2000/svg"
   xmlns="http://www.w3.org/2000/svg"
   xmlns:sodipodi="http://sodipodi.sourceforge.net/DTD/sodipodi-0.dtd"
   xmlns:inkscape="http://www.inkscape.org/namespaces/inkscape"
   width="50"
   height="41"
   version="1.1"
   id="svg2"
   inkscape:version="0.92.3 (2405546, 2018-03-11)"
   sodipodi:docname="climb.svg"
   inkscape:export-filename="S:\active\climbshare-vulcan\public\tool_icons\drawClimb.png"
   inkscape:export-xdpi="72"
   inkscape:export-ydpi="72">
  <metadata
     id="metadata14">
    <rdf:RDF>
      <cc:Work
         rdf:about="">
        <dc:format>image/svg+xml</dc:format>
        <dc:type
           rdf:resource="http://purl.org/dc/dcmitype/StillImage" />
        <dc:title></dc:title>
      </cc:Work>
    </rdf:RDF>
  </metadata>
  <defs
     id="defs12" />
  <sodipodi:namedview
     pagecolor="#ffffff"
     bordercolor="#666666"
     borderopacity="1"
     objecttolerance="10"
     gridtolerance="10"
     guidetolerance="10"
     inkscape:pageopacity="0"
     inkscape:pageshadow="2"
     inkscape:window-width="2335"
     inkscape:window-height="1417"
     id="namedview10"
     showgrid="false"
     inkscape:zoom="20.038694"
     inkscape:cx="9.2162921"
     inkscape:cy="22.35258"
     inkscape:window-x="3832"
     inkscape:window-y="713"
     inkscape:window-maximized="1"
     inkscape:current-layer="g3031"
     fit-margin-top="0"
     fit-margin-left="0"
     fit-margin-right="0"
     fit-margin-bottom="0"
     inkscape:snap-object-midpoints="true"
     inkscape:snap-intersection-paths="true"
     inkscape:object-paths="true" />
  <g
     transform="matrix(2.30386,0,0,2.30386,-172.69111,-13.504567)"
     id="g4">
    <g
       id="g3031"
       transform="matrix(0.01264674,0,0,0.01193194,81.38323,11.429989)">
      <title
         id="title3033">Layer 1</title>
      <g
         id="g5334"
         transform="matrix(1.9796022,0,0,1.9796022,-275.94148,-309.33581)">
        <path
           sodipodi:nodetypes="sccsccssssscccc"
           inkscape:connector-curvature="0"
           style="fill:#015a01"
           d="m 85.371351,10.483323 c -0.184696,-0.01194 -0.373496,0.07528 -0.491788,0.23193 l -4.869304,8.180673 c -0.03292,0.123639 -0.03416,0.202369 -0.0049,0.318752 0.02802,0.111291 0.137557,0.226081 0.242251,0.253786 l 10.140538,0.003 c 0.0634,-0.01151 0.150822,-0.04134 0.193679,-0.06618 0.156222,-0.09055 0.261846,-0.331664 0.151179,-0.514859 l -4.929411,-8.160031 c -0.07201,-0.1192 -0.217169,-0.205094 -0.353358,-0.235572 -0.026,-0.0058 -0.05254,-0.0098 -0.07893,-0.01154 z m -0.02825,1.015656 4.393489,7.37002 -8.704375,0.02824 z"
           id="foo"
           transform="matrix(79.071761,0,0,83.808668,-6435.1153,-957.93216)" />
        <g
           id="g5324">
          <g
             id="layer1">
            <path
               style="fill:#015a01;fill-rule:nonzero"
               inkscape:connector-curvature="0"
               id="path5040"
               d="m 343.45546,463.25649 c -4.81658,1.77127 -10.2066,2.79974 -15.71127,2.79974 -5.90607,0 -11.75479,-0.68564 -17.1448,-2.22836 L 249.70385,603.3019 c -5.56201,12.85608 -20.87191,17.19854 -34.23223,9.71344 -13.30298,-7.48505 -19.61043,-23.88373 -13.87639,-36.73975 l 74.65723,-170.61426 h 95.18515 V 389.7198 l 48.16596,-22.341 c 12.6149,-6.11377 29.01426,4.3425 32.34002,17.65567 l 23.62425,94.39209 c 3.38309,13.3703 -4.8166,26.91202 -18.23426,30.22605 -13.475,3.37115 -27.12204,-4.7996 -30.44776,-18.1699 L 411.8626,431.3163 343.45547,463.25649 Z" />
            <path
               style="fill:#015a01;fill-rule:nonzero"
               inkscape:connector-curvature="0"
               id="path5044"
               d="m 194.8864,326.8679 c 5.44734,8.51358 16.45671,12.28467 26.20457,8.28504 l 55.16149,-21.54106 v 76.22221 h 95.18515 V 301.55576 L 456.76018,165.51 c 6.2501,-9.94202 3.38309,-23.08377 -6.70882,-29.48323 -9.97724,-6.22805 -23.16554,-3.314 -28.78492,6.39946 l -72.4783,115.59031 -43.63608,0.11427 c -2.80969,0 -5.61935,0.45711 -8.42905,1.54274 l -75.40267,29.48322 -38.87682,-58.68079 c -6.36479,-9.82774 -19.61043,-12.74177 -29.58766,-6.39947 -9.97724,6.39947 -12.84427,19.6555 -6.47948,29.59753 l 48.51002,73.19387 z" />
            <path
               style="fill:#015a01;fill-rule:nonzero"
               inkscape:connector-curvature="0"
               id="path5046"
               d="m 317.30822,250.3029 c 20.9866,0 38.01672,-16.85574 38.01672,-37.71113 0,-20.8554 -17.03012,-37.8254 -38.01672,-37.8254 -20.92926,0 -37.95935,16.97 -37.95935,37.8254 0,20.85539 17.03009,37.71113 37.95935,37.71113" />
            <path
               style="color:#000000;display:inline;overflow:visible;visibility:visible;fill:#ccff99;fill-opacity:0.78431373;fill-rule:nonzero;stroke:none;stroke-width:0.24951726;marker:none;enable-background:new"
               d="m 2.5627336,19.189332 c 0.056969,-0.09377 1.2867011,-2.202805 2.7327376,-4.686749 1.4460365,-2.483944 2.6442902,-4.5313808 2.6627854,-4.549859 0.018496,-0.018478 0.2446272,0.270165 0.5025143,0.641429 0.4865816,0.700502 0.6638616,0.863812 0.9380506,0.864133 0.087642,1.03e-4 0.5324359,-0.134553 0.9884295,-0.299234 0.455993,-0.164682 0.839031,-0.299421 0.851194,-0.299421 0.01216,0 0.02212,0.460359 0.02212,1.023021 v 1.023021 h 1.372345 1.372345 v 0.198824 0.198824 l -1.381766,0.01327 -1.381765,0.01327 -1.112556,2.395366 c -0.7612966,1.639091 -1.1128255,2.449475 -1.1134078,2.566748 -0.00224,0.451951 0.4064885,0.851914 0.8699733,0.851309 0.4667905,-6.09e-4 0.4489155,0.02571 1.4746385,-2.17157 l 0.923214,-1.977691 0.449131,-0.0087 0.449131,-0.0087 0.99275,-0.439479 c 0.546013,-0.241713 1.008623,-0.421366 1.028024,-0.399227 0.0194,0.02214 0.121013,0.377099 0.225807,0.788802 0.241681,0.949495 0.306222,1.081429 0.598162,1.222754 0.327205,0.158397 0.626996,0.107981 0.883568,-0.148591 0.181667,-0.181667 0.217171,-0.288147 0.191768,-0.575128 -0.02305,-0.260411 -0.714215,-2.759414 -0.792768,-2.866365 -0.148484,-0.202163 -0.334563,-0.312372 -0.564058,-0.334074 -0.184489,-0.01745 -0.328435,0.02864 -0.941391,0.301415 l -0.7236,0.32201 -0.01338,-1.168042 -0.01338,-1.168041 0.811831,-1.2224709 c 0.446507,-0.6723589 0.82306,-1.2226924 0.836783,-1.2229634 0.03603,-7.117e-4 6.694843,11.1849993 6.671991,11.2078523 -0.01052,0.01052 -4.495656,0.03388 -9.966967,0.05192 l -9.9478387,0.03279 0.1035803,-0.170487 v 0 z"
               id="path3020"
               inkscape:connector-curvature="0"
               transform="matrix(34.321426,0,0,36.3775,-110.6052,-79.429743)" />
            <path
               style="color:#000000;display:inline;overflow:visible;visibility:visible;fill:#ccff99;fill-opacity:0.78431373;fill-rule:nonzero;stroke:none;stroke-width:5;marker:none;enable-background:new"
               d="M 9.1976004,9.4062236 C 8.9285324,9.0247556 8.7155973,8.6832009 8.7244113,8.6472125 c 0.00881,-0.035988 0.8240682,-1.4500863 1.8116757,-3.1424404 1.364935,-2.3389376 1.809068,-3.0622627 1.851585,-3.0155366 0.08848,0.097234 2.565745,4.2806012 2.565745,4.3327785 0,0.025777 -0.359534,0.5854805 -0.798965,1.2437869 l -0.798964,1.1969198 h -0.69793 -0.69793 L 10.948874,9.6326235 C 10.392959,9.8360704 9.8815761,10.024414 9.8124673,10.051164 9.6923999,10.09764 9.6650707,10.068974 9.1976004,9.4062236 Z M 13.048994,8.9425327 C 13.744513,8.5828655 13.764242,7.5389841 13.083064,7.1397875 12.610659,6.8629399 11.97861,6.9425422 11.63573,7.3220693 c -0.223324,0.2471922 -0.275362,0.3805203 -0.275362,0.70551 0,0.8137157 0.920211,1.3123161 1.688626,0.9149534 z"
               id="path3022"
               inkscape:connector-curvature="0"
               transform="matrix(34.321426,0,0,36.3775,-110.6052,-79.429743)" />
          </g>
          <rect
             x="307.90552"
             y="73.637817"
             width="15"
             height="0"
             id="svg_15"
             style="fill:#000000;stroke-width:5" />
        </g>
      </g>
      <path
         style="fill:none;fill-rule:evenodd;stroke:#000000;stroke-width:36.21557617px;stroke-linecap:butt;stroke-linejoin:miter;stroke-opacity:1"
         d="M -383.97873,612.22227 -361.48028,-67.381365 -147.31353,75.887061 117.76172,-350.19695"
         id="path4527"
         inkscape:connector-curvature="0"
         sodipodi:nodetypes="cccc" />
      <ellipse
         style="fill:#000000;fill-opacity:1;stroke:none;stroke-width:36.21557617;stroke-miterlimit:4;stroke-dasharray:none;stroke-dashoffset:0;stroke-opacity:1"
         id="path4529"
         cx="117.76171"
         cy="-350.19696"
         rx="56.174889"
         ry="59.540123" />
      <ellipse
         style="fill:#000000;fill-opacity:1;stroke:none;stroke-width:36.21557617;stroke-miterlimit:4;stroke-dasharray:none;stroke-dashoffset:0;stroke-opacity:1"
         id="path4529-1"
         cx="-349.68234"
         cy="-59.489048"
         rx="56.174892"
         ry="59.540123" />
      <ellipse
         style="fill:#000000;fill-opacity:1;stroke:none;stroke-width:36.21557617;stroke-miterlimit:4;stroke-dasharray:none;stroke-dashoffset:0;stroke-opacity:1"
         id="path4529-1-4"
         cx="-383.97873"
         cy="612.22223"
         rx="56.174896"
         ry="59.540123" />
    </g>
  </g>
</svg>
