<?xml version="1.0" encoding="UTF-8" standalone="no"?>
<svg
   xmlns:dc="http://purl.org/dc/elements/1.1/"
   xmlns:cc="http://creativecommons.org/ns#"
   xmlns:rdf="http://www.w3.org/1999/02/22-rdf-syntax-ns#"
   xmlns:svg="http://www.w3.org/2000/svg"
   xmlns="http://www.w3.org/2000/svg"
   xmlns:sodipodi="http://sodipodi.sourceforge.net/DTD/sodipodi-0.dtd"
   xmlns:inkscape="http://www.inkscape.org/namespaces/inkscape"
   width="48.03228"
   height="40"
   version="1.1"
   id="svg2"
   inkscape:version="0.48.4 r9939"
   sodipodi:docname="other.svg"
   inkscape:export-filename="/home/aaron/climbshare/public/img/other.png"
   inkscape:export-xdpi="63.709999"
   inkscape:export-ydpi="63.709999">
  <metadata
     id="metadata14">
    <rdf:RDF>
      <cc:Work
         rdf:about="">
        <dc:format>image/svg+xml</dc:format>
        <dc:type
           rdf:resource="http://purl.org/dc/dcmitype/StillImage" />
        <dc:title></dc:title>
      </cc:Work>
    </rdf:RDF>
  </metadata>
  <defs
     id="defs12" />
  <sodipodi:namedview
     pagecolor="#ffffff"
     bordercolor="#666666"
     borderopacity="1"
     objecttolerance="10"
     gridtolerance="10"
     guidetolerance="10"
     inkscape:pageopacity="0"
     inkscape:pageshadow="2"
     inkscape:window-width="2048"
     inkscape:window-height="1132"
     id="namedview10"
     showgrid="false"
     inkscape:zoom="14.169497"
     inkscape:cx="15.24008"
     inkscape:cy="14.627797"
     inkscape:window-x="-2"
     inkscape:window-y="-3"
     inkscape:window-maximized="1"
     inkscape:current-layer="g5345"
     fit-margin-top="0"
     fit-margin-left="0"
     fit-margin-right="0"
     fit-margin-bottom="0" />
  <g
     transform="matrix(2.30386,0,0,2.30386,-172.6911,-14.504568)"
     id="g4">
    <g
       id="g5345"
       transform="matrix(1.9314417,0,0,1.9314417,-79.527984,-13.950064)">
      <path
         sodipodi:nodetypes="sccsccssssscccc"
         inkscape:connector-curvature="0"
         style="fill:#000000;fill-opacity:1"
         d="m 85.371351,10.483323 c -0.184696,-0.01194 -0.373496,0.07528 -0.491788,0.23193 l -4.869304,8.180673 c -0.03292,0.123639 -0.03416,0.202369 -0.0049,0.318752 0.02802,0.111291 0.137557,0.226081 0.242251,0.253786 l 10.140538,0.003 c 0.0634,-0.01151 0.150822,-0.04134 0.193679,-0.06618 0.156222,-0.09055 0.261846,-0.331664 0.151179,-0.514859 l -4.929411,-8.160031 c -0.07201,-0.1192 -0.217169,-0.205094 -0.353358,-0.235572 -0.026,-0.0058 -0.05254,-0.0098 -0.07893,-0.01154 z m -0.02825,1.015656 4.393489,7.37002 -8.704375,0.02824 z"
         id="foo" />
      <text
         sodipodi:linespacing="125%"
         id="text3200"
         y="18.388433"
         x="83.594498"
         style="font-size:3.6930716px;font-style:normal;font-weight:normal;line-height:125%;letter-spacing:0px;word-spacing:0px;fill:#000000;fill-opacity:1;stroke:none;font-family:Sans"
         xml:space="preserve"><tspan
           style="font-size:6.56546021px;font-weight:bold;fill:#000000;fill-opacity:1;-inkscape-font-specification:Sans Bold"
           y="18.388433"
           x="83.594498"
           id="tspan3202"
           sodipodi:role="line">?</tspan></text>
      <path
         transform="matrix(0.43405415,0,0,0.43405415,79.984435,10.482238)"
         inkscape:connector-curvature="0"
         id="path4808"
         d="m 2.5983034,19.111838 c 0.083585,-0.141911 2.3098689,-3.961599 4.9472987,-8.488195 2.6374299,-4.5265964 4.8010959,-8.2244064 4.8081459,-8.217356 0.0071,0.00705 2.273932,3.8059042 5.037515,8.441897 l 5.024695,8.429078 -1.488757,0.02201 c -0.818817,0.0121 -5.311983,0.03294 -9.984814,0.0463 l -8.4960553,0.02429 0.1519717,-0.258021 z m 10.9648426,-2.19881 0,-1.323265 -1.340909,0 -1.340909,0 0,1.323265 0,1.323266 1.340909,0 1.340909,0 0,-1.323266 z m 0.0084,-2.735698 c 0.03156,-0.553423 0.170576,-0.750972 1.19851,-1.703085 1.013751,-0.938976 1.33872,-1.568404 1.342871,-2.6009869 C 16.117727,8.6805203 15.66003,7.8991795 14.674716,7.4180421 13.99863,7.0879167 13.20739,6.9527969 12.169338,6.9902047 11.390019,7.0182886 10.740521,7.1408226 9.7786074,7.4412384 l -0.4499101,0.1405117 0,1.1810412 c 0,0.6495725 0.0054,1.181041 0.012011,1.181041 0.00661,0 0.145549,-0.0804 0.3087619,-0.1786662 1.4437568,-0.8692511 2.8844848,-1.0568178 3.4872958,-0.4540073 0.204352,0.2043523 0.266692,0.3684467 0.267164,0.7032472 3.74e-4,0.265889 -0.01264,0.327525 -0.114646,0.542916 -0.156827,0.331149 -0.399901,0.619952 -0.900836,1.07031 -0.82306,0.739958 -1.221608,1.22852 -1.390502,1.704555 -0.0771,0.217304 -0.09638,0.343235 -0.109289,0.713767 l -0.01567,0.44991 1.340187,0 1.340187,0 0.01816,-0.318534 0,0 z"
         style="color:#000000;fill:#aaaaaa;fill-opacity:0.78431374;fill-rule:nonzero;stroke:#000000;stroke-width:0.17643534999999999;stroke-linecap:butt;stroke-linejoin:round;stroke-miterlimit:4;stroke-opacity:1;stroke-dasharray:none;stroke-dashoffset:0;marker:none;visibility:visible;display:inline;overflow:visible;enable-background:new" />
    </g>
  </g>
</svg>
