<?xml version="1.0" encoding="UTF-8" standalone="no"?>
<svg
   xmlns:dc="http://purl.org/dc/elements/1.1/"
   xmlns:cc="http://creativecommons.org/ns#"
   xmlns:rdf="http://www.w3.org/1999/02/22-rdf-syntax-ns#"
   xmlns:svg="http://www.w3.org/2000/svg"
   xmlns="http://www.w3.org/2000/svg"
   xmlns:sodipodi="http://sodipodi.sourceforge.net/DTD/sodipodi-0.dtd"
   xmlns:inkscape="http://www.inkscape.org/namespaces/inkscape"
   width="48.03228"
   height="40"
   version="1.1"
   id="svg2"
   inkscape:version="0.48.4 r9939"
   sodipodi:docname="warning.svg">
  <metadata
     id="metadata14">
    <rdf:RDF>
      <cc:Work
         rdf:about="">
        <dc:format>image/svg+xml</dc:format>
        <dc:type
           rdf:resource="http://purl.org/dc/dcmitype/StillImage" />
        <dc:title />
      </cc:Work>
    </rdf:RDF>
  </metadata>
  <defs
     id="defs12" />
  <sodipodi:namedview
     pagecolor="#ffffff"
     bordercolor="#666666"
     borderopacity="1"
     objecttolerance="10"
     gridtolerance="10"
     guidetolerance="10"
     inkscape:pageopacity="0"
     inkscape:pageshadow="2"
     inkscape:window-width="1366"
     inkscape:window-height="748"
     id="namedview10"
     showgrid="false"
     inkscape:zoom="14.169496"
     inkscape:cx="14.889142"
     inkscape:cy="20.289577"
     inkscape:window-x="2046"
     inkscape:window-y="-3"
     inkscape:window-maximized="1"
     inkscape:current-layer="g2988"
     fit-margin-top="0"
     fit-margin-left="0"
     fit-margin-right="0"
     fit-margin-bottom="0" />
  <g
     transform="matrix(2.30386,0,0,2.30386,-166.68707,-19.504565)"
     id="g4">
    <g
       id="g5318"
       transform="matrix(2.4143022,0,0,2.4143022,-120.75538,-21.181794)">
      <g
         id="g2989"
         transform="matrix(0.79999999,0,0,0.79999999,17.07632,2.9953703)">
        <g
           id="g2988"
           transform="translate(-1.3492918,1.123653)">
          <path
             sodipodi:nodetypes="sccsccssssscccc"
             inkscape:connector-curvature="0"
             style="fill:#980101"
             d="m 85.371351,10.483323 c -0.184696,-0.01194 -0.373496,0.07528 -0.491788,0.23193 l -4.869304,8.180673 c -0.03292,0.123639 -0.03416,0.202369 -0.0049,0.318752 0.02802,0.111291 0.137557,0.226081 0.242251,0.253786 l 10.140538,0.003 c 0.0634,-0.01151 0.150822,-0.04134 0.193679,-0.06618 0.156222,-0.09055 0.261846,-0.331664 0.151179,-0.514859 l -4.929411,-8.160031 c -0.07201,-0.1192 -0.217169,-0.205094 -0.353358,-0.235572 -0.026,-0.0058 -0.05254,-0.0098 -0.07893,-0.01154 z m -0.02825,1.015656 4.393489,7.37002 -8.704375,0.02824 z"
             id="foo" />
          <text
             sodipodi:linespacing="125%"
             id="text3200"
             y="18.236807"
             x="83.797981"
             style="font-size:3.90648746px;font-style:normal;font-weight:normal;line-height:125%;letter-spacing:0px;word-spacing:0px;fill:#980101;fill-opacity:1;stroke:none;font-family:Sans"
             xml:space="preserve"><tspan
               style="font-size:6.94486618px;font-weight:bold;fill:#980101;-inkscape-font-specification:Sans Bold"
               y="18.236807"
               x="83.797981"
               id="tspan3202"
               sodipodi:role="line">!</tspan></text>
          <path
             transform="matrix(0.22473065,0,0,0.22473065,78.635143,9.3585849)"
             inkscape:connector-curvature="0"
             id="path2995"
             d="m 10.738927,42.369015 c 0.04549,-0.110112 19.083988,-32.7561256 19.106807,-32.7631505 0.01417,-0.00436 4.41004,7.3477005 9.76861,16.3379125 l 9.742856,16.345842 -0.427069,0.0081 c -0.630975,0.01191 -32.713013,0.115934 -35.673805,0.11567 -2.014622,-1.8e-4 -2.531878,-0.0093 -2.517399,-0.04434 z m 22.008459,-5.548892 0,-2.69946 -2.734748,0 -2.734748,0 0,2.69946 0,2.699461 2.734748,0 2.734748,0 0,-2.699461 z m -0.760112,-4.931368 c 0.0097,-0.04367 0.184625,-1.457541 0.38883,-3.14194 l 0.371282,-3.062545 0,-4.356562 0,-4.356561 -2.734748,0 -2.734748,0 0,4.300073 0,4.300072 0.388101,3.171965 c 0.213455,1.74458 0.388126,3.183873 0.388158,3.198429 3.1e-5,0.01456 0.881048,0.02646 1.957816,0.02646 l 1.957761,0 0.01755,-0.0794 z"
             style="color:#000000;fill:#f44800;fill-opacity:0.78431374;fill-rule:nonzero;stroke:none;stroke-width:5;marker:none;visibility:visible;display:inline;overflow:visible;enable-background:new" />
        </g>
      </g>
    </g>
  </g>
</svg>
